# xmcd
#
# Track frame offsets: 
#        150
#        18346
#        34306
#        45077
#        64411
#        77404
#        85956
#        102364
#        119645
#        126867
#        134138
#        147182
#        173864
#
# Disc length: 2538 seconds
#
# Revision: 0
# Processed by: cddbd v1.5.1PL0 Copyright (c) Steve Scherf et al.
# Submitted via: ExactAudioCopy v0.95a5
#
DISCID=b509e80d
DTITLE=Brain Failure - Turn On The Distortion!
DYEAR=2003
DGENRE=Punk
TTITLE0=Coming Down To Beijing
TTITLE1=KTV
TTITLE2=The Party's Down
TTITLE3=Call The Police
TTITLE4=Living In The City
TTITLE5=Lick Me Baby
TTITLE6=No Dirty Punx
TTITLE7=My Simple Life!
TTITLE8=Tuqiang Songs
TTITLE9=No Apologize
TTITLE10=2008
TTITLE11=Sail
TTITLE12=Living In The City (video)
EXTD=
EXTT0=
EXTT1=
EXTT2=
EXTT3=
EXTT4=
EXTT5=
EXTT6=
EXTT7=
EXTT8=
EXTT9=
EXTT10=
EXTT11=
EXTT12=
PLAYORDER=
